# xmcd
#
# Track frame offsets: 
#        150
#        17987
#        31346
#        48888
#        68154
#        79822
#        99665
#        110392
#        118245
#        132495
#        149733
#        165072
#        181516
#        190752
#        206764
#
# Disc length: 2981 seconds
#
# Revision: 0
# Processed by: cddbd v1.5.2PL0 Copyright (c) Steve Scherf et al.
# Submitted via: ExactAudioCopy v1.3
#
DISCID=cd0ba30f
DTITLE=Bai Kamara Jr and The Voodoo Sniffers - Salone
DYEAR=2020
DGENRE=Blues
TTITLE0=Can't Wait Here Too Long
TTITLE1=Lady Boss
TTITLE2=Black Widow Spider
TTITLE3=Homecoming
TTITLE4=Morning School Run Blues
TTITLE5=Cold Cold Love
TTITLE6=The Rest Of Everything
TTITLE7=Cry Baby
TTITLE8=I Ain't Lying (Can't Give You What I Aint Got)
TTITLE9=Don't Worry About Me
TTITLE10=Naked Girls On The Merry -Go-Round
TTITLE11=Time Has Come
TTITLE12=Fortune
TTITLE13=Riverboat Blues
TTITLE14=Some Kind Of Loving Tonight
EXTD=
EXTT0=
EXTT1=
EXTT2=
EXTT3=
EXTT4=
EXTT5=
EXTT6=
EXTT7=
EXTT8=
EXTT9=
EXTT10=
EXTT11=
EXTT12=
EXTT13=
EXTT14=
PLAYORDER=
